<svg width="24" height="25" viewBox="0 0 24 25" fill="none" xmlns="http://www.w3.org/2000/svg">
<g clip-path="url(#clip0_77_283)">
<path d="M12 2.8C17.523 2.8 22 7.277 22 12.8C22 18.323 17.523 22.8 12 22.8C6.477 22.8 2 18.323 2 12.8C2 7.277 6.477 2.8 12 2.8ZM11.99 10.8H11C10.7451 10.8003 10.5 10.8979 10.3146 11.0729C10.1293 11.2478 10.0178 11.487 10.0028 11.7414C9.98789 11.9958 10.0707 12.2464 10.2343 12.4418C10.3979 12.6373 10.6299 12.7629 10.883 12.793L11 12.8V17.79C11 18.31 11.394 18.74 11.9 18.794L12.01 18.8H12.5C12.7103 18.8 12.9153 18.7337 13.0857 18.6105C13.2562 18.4873 13.3835 18.3135 13.4495 18.1139C13.5155 17.9142 13.5169 17.6988 13.4534 17.4983C13.3899 17.2977 13.2649 17.1223 13.096 16.997L13 16.934V11.81C13 11.29 12.606 10.86 12.1 10.806L11.99 10.8ZM12 7.8C11.7348 7.8 11.4804 7.90536 11.2929 8.0929C11.1054 8.28043 11 8.53479 11 8.8C11 9.06522 11.1054 9.31957 11.2929 9.50711C11.4804 9.69465 11.7348 9.8 12 9.8C12.2652 9.8 12.5196 9.69465 12.7071 9.50711C12.8946 9.31957 13 9.06522 13 8.8C13 8.53479 12.8946 8.28043 12.7071 8.0929C12.5196 7.90536 12.2652 7.8 12 7.8Z" fill="#4D4D4D"/>
</g>
<defs>
<clipPath id="clip0_77_283">
<rect width="24" height="24" fill="white" transform="translate(0 0.800003)"/>
</clipPath>
</defs>
</svg>
