<svg width="27" height="27" viewBox="0 0 27 27" fill="none" xmlns="http://www.w3.org/2000/svg">
<path fill-rule="evenodd" clip-rule="evenodd" d="M16.0639 2.421C15.6476 2.25 15.1189 2.25 14.0625 2.25C13.0061 2.25 12.4785 2.25 12.0611 2.421C11.507 2.64849 11.0659 3.08674 10.8349 3.63937C10.7291 3.89025 10.6886 4.18388 10.6717 4.61025C10.6642 4.91918 10.5781 5.22109 10.4214 5.48743C10.2647 5.75378 10.0426 5.97576 9.77625 6.13238C9.50483 6.28324 9.19973 6.36316 8.88921 6.36474C8.57869 6.36631 8.2728 6.28948 7.99987 6.14138C7.61962 5.94113 7.344 5.83087 7.07175 5.79488C6.47612 5.71667 5.8737 5.87677 5.3955 6.24038C5.03775 6.51262 4.77337 6.96712 4.24575 7.875C3.717 8.78288 3.45375 9.23625 3.39412 9.68062C3.31537 10.2724 3.47737 10.8709 3.84412 11.3445C4.01062 11.5605 4.24575 11.7416 4.60912 11.9689C5.14575 12.303 5.49 12.8722 5.49 13.5C5.49 14.1278 5.14575 14.697 4.61025 15.03C4.24575 15.2584 4.01062 15.4395 3.843 15.6555C3.66196 15.8894 3.52909 16.1569 3.45204 16.4425C3.375 16.7281 3.35531 17.0261 3.39412 17.3194C3.45375 17.7626 3.717 18.2171 4.24575 19.125C4.7745 20.0329 5.03775 20.4862 5.3955 20.7596C5.8725 21.123 6.4755 21.2828 7.07175 21.2051C7.344 21.1691 7.61962 21.0589 7.99987 20.8586C8.27294 20.7103 8.57904 20.6334 8.88978 20.635C9.20051 20.6365 9.50582 20.7166 9.77737 20.8676C10.3241 21.1826 10.6481 21.762 10.6717 22.3898C10.6886 22.8173 10.7291 23.1097 10.8349 23.3606C11.0644 23.9119 11.5054 24.3506 12.0611 24.579C12.4774 24.75 13.0061 24.75 14.0625 24.75C15.1189 24.75 15.6476 24.75 16.0639 24.579C16.618 24.3515 17.0591 23.9133 17.2901 23.3606C17.3959 23.1097 17.4364 22.8173 17.4532 22.3898C17.4757 21.762 17.8009 21.1815 18.3487 20.8676C18.6202 20.7168 18.9253 20.6368 19.2358 20.6353C19.5463 20.6337 19.8522 20.7105 20.1251 20.8586C20.5054 21.0589 20.781 21.1691 21.0532 21.2051C21.6495 21.2839 22.2525 21.123 22.7295 20.7596C23.0872 20.4874 23.3516 20.0329 23.8792 19.125C24.408 18.2171 24.6712 17.7638 24.7309 17.3194C24.7695 17.0261 24.7497 16.728 24.6724 16.4424C24.5952 16.1568 24.4621 15.8893 24.2809 15.6555C24.1144 15.4395 23.8792 15.2584 23.5159 15.0311C22.9792 14.697 22.635 14.1278 22.635 13.5C22.635 12.8722 22.9792 12.303 23.5147 11.97C23.8792 11.7416 24.1144 11.5605 24.282 11.3445C24.463 11.1106 24.5959 10.8431 24.673 10.5575C24.75 10.2719 24.7697 9.97387 24.7309 9.68062C24.6712 9.23737 24.408 8.78288 23.8792 7.875C23.3505 6.96712 23.0872 6.51375 22.7295 6.24038C22.2513 5.87677 21.6489 5.71667 21.0532 5.79488C20.781 5.83087 20.5054 5.94113 20.1251 6.14138C19.8521 6.28968 19.546 6.36662 19.2352 6.36505C18.9245 6.36347 18.6192 6.28344 18.3476 6.13238C18.0814 5.97562 17.8596 5.75358 17.7031 5.48725C17.5466 5.22091 17.4606 4.91907 17.4532 4.61025C17.4364 4.18275 17.3959 3.89025 17.2901 3.63937C17.1758 3.3657 17.0086 3.11724 16.7982 2.90819C16.5878 2.69914 16.3383 2.53359 16.0639 2.421ZM14.0625 16.875C15.9412 16.875 17.4634 15.3641 17.4634 13.5C17.4634 11.6359 15.9401 10.125 14.0625 10.125C12.1837 10.125 10.6616 11.6359 10.6616 13.5C10.6616 15.3641 12.1849 16.875 14.0625 16.875Z" fill="#4D4D4D"/>
</svg>
